<svg width="3198" height="2117" viewBox="0 0 3198 2117" fill="none" xmlns="http://www.w3.org/2000/svg">
<path d="M477.335 813.14C477.335 852.353 467.688 886.586 448.393 915.84C429.097 945.094 401.088 967.812 364.365 983.995C328.265 999.556 284.073 1007.34 231.789 1007.34C208.759 1007.34 186.041 1005.78 163.633 1002.67C141.849 999.556 120.686 995.199 100.146 989.597C80.2285 983.373 61.2446 975.904 43.1942 967.19V835.547C74.9379 849.241 107.615 862 141.226 873.826C175.459 885.03 209.382 890.632 242.993 890.632C266.022 890.632 284.384 887.52 298.077 881.295C312.393 875.071 322.663 866.668 328.887 856.087C335.734 845.506 339.157 833.369 339.157 819.675C339.157 802.87 333.244 788.554 321.418 776.728C310.214 764.902 294.965 754.01 275.67 744.051C256.375 733.47 234.279 722.266 209.382 710.44C193.821 702.971 177.016 694.257 158.965 684.298C140.915 673.717 123.487 660.957 106.682 646.019C90.4985 630.458 77.1164 611.786 66.5352 590.001C55.9539 568.216 50.6633 542.074 50.6633 511.575C50.6633 471.74 59.6885 437.818 77.7388 409.809C96.4115 381.177 122.553 359.392 156.164 344.454C190.398 329.516 230.544 322.047 276.603 322.047C311.459 322.047 344.448 326.093 375.569 334.184C407.313 342.276 440.301 353.791 474.534 368.729L428.786 478.898C398.287 466.449 370.901 456.802 346.626 449.955C322.352 443.109 297.455 439.685 271.935 439.685C254.507 439.685 239.569 442.486 227.121 448.088C214.672 453.69 205.025 461.47 198.178 471.429C191.954 481.388 188.842 493.214 188.842 506.907C188.842 522.468 193.51 535.85 202.846 547.053C212.182 557.635 226.187 567.905 244.86 577.863C263.533 587.822 286.873 599.648 314.883 613.342C349.116 629.525 378.059 646.33 401.711 663.758C425.985 681.186 444.658 701.726 457.729 725.378C470.8 749.03 477.335 778.284 477.335 813.14ZM880.462 998L719.877 475.163H716.142C716.765 487.612 717.698 506.285 718.943 531.182C720.188 556.079 721.433 582.843 722.678 611.474C723.922 639.483 724.545 665.003 724.545 688.033V998H598.504V331.383H790.833L948.618 841.149H951.419L1118.54 331.383H1310.87V998H1179.23V682.431C1179.23 661.268 1179.54 636.994 1180.16 609.607C1181.4 582.22 1182.34 556.39 1182.96 532.115C1184.21 507.218 1185.14 488.546 1185.76 476.097H1182.03L1010.24 998H880.462ZM1887.26 998L1838.71 839.282H1595.96L1547.41 998H1395.23L1630.51 328.582H1803.23L2039.44 998H1887.26ZM1756.55 565.726C1753.44 555.145 1749.39 541.763 1744.41 525.58C1739.43 509.397 1734.45 492.903 1729.47 476.097C1724.49 459.292 1720.45 444.665 1717.34 432.216C1714.22 444.665 1709.87 460.225 1704.27 478.898C1699.29 496.948 1694.31 514.376 1689.33 531.182C1684.97 547.365 1681.55 558.879 1679.06 565.726L1631.44 720.71H1805.1L1756.55 565.726ZM2318.07 331.383C2378.44 331.383 2428.23 338.852 2467.45 353.791C2506.66 368.106 2535.91 390.202 2555.21 420.079C2574.5 449.333 2584.15 486.367 2584.15 531.182C2584.15 561.68 2578.24 588.445 2566.41 611.474C2555.21 633.882 2539.96 653.177 2520.66 669.36C2501.99 684.92 2481.76 697.68 2459.98 707.639L2656.04 998H2499.19L2340.47 742.184H2264.85V998H2123.87V331.383H2318.07ZM2307.8 447.154H2264.85V627.346H2310.6C2357.28 627.346 2390.58 619.566 2410.5 604.005C2431.04 588.445 2441.31 565.415 2441.31 534.916C2441.31 513.754 2436.33 496.948 2426.37 484.5C2417.03 471.429 2402.4 462.092 2382.49 456.491C2363.19 450.266 2338.29 447.154 2307.8 447.154ZM2996.97 998H2855.99V449.022H2674.86V331.383H3178.09V449.022H2996.97V998Z" fill="black"/>
<path d="M506.291 1630.18C506.291 1671.78 496.056 1708.1 475.584 1739.14C455.112 1770.18 425.395 1794.28 386.433 1811.45C348.131 1827.96 301.244 1836.22 245.773 1836.22C221.339 1836.22 197.235 1834.57 173.461 1831.27C150.348 1827.96 127.895 1823.34 106.103 1817.4C84.9708 1810.79 64.8293 1802.87 45.6783 1793.62V1653.95C79.3576 1668.48 114.027 1682.02 149.688 1694.57C186.008 1706.45 221.999 1712.4 257.659 1712.4C282.093 1712.4 301.575 1709.1 316.103 1702.49C331.291 1695.89 342.188 1686.97 348.791 1675.75C356.056 1664.52 359.688 1651.64 359.688 1637.11C359.688 1619.28 353.414 1604.1 340.867 1591.55C328.98 1579 312.801 1567.44 292.329 1556.88C271.858 1545.65 248.414 1533.77 221.999 1521.22C205.49 1513.29 187.659 1504.05 168.508 1493.48C149.358 1482.26 130.867 1468.72 113.037 1452.87C95.867 1436.36 81.6689 1416.55 70.4425 1393.44C59.2161 1370.32 53.6029 1342.59 53.6029 1310.23C53.6029 1267.96 63.1783 1231.97 82.3293 1202.26C102.141 1171.88 129.876 1148.77 165.537 1132.92C201.858 1117.07 244.452 1109.14 293.32 1109.14C330.301 1109.14 365.301 1113.44 398.32 1122.02C431.999 1130.61 466.999 1142.82 503.32 1158.67L454.782 1275.56C422.424 1262.35 393.367 1252.11 367.612 1244.85C341.858 1237.59 315.442 1233.95 288.367 1233.95C269.876 1233.95 254.027 1236.93 240.82 1242.87C227.612 1248.81 217.376 1257.07 210.112 1267.63C203.508 1278.2 200.207 1290.75 200.207 1305.27C200.207 1321.78 205.159 1335.98 215.065 1347.87C224.971 1359.1 239.829 1369.99 259.641 1380.56C279.452 1391.12 304.216 1403.67 333.933 1418.2C370.254 1435.37 400.961 1453.2 426.056 1471.69C451.81 1490.18 471.622 1511.97 485.49 1537.07C499.357 1562.16 506.291 1593.2 506.291 1630.18ZM907.254 1826.31H757.678V1243.86H565.509V1119.05H1099.42V1243.86H907.254V1826.31ZM2277.67 1233.95C2249.27 1233.95 2223.85 1239.57 2201.4 1250.79C2179.6 1262.02 2161.11 1278.2 2145.93 1299.33C2130.74 1319.8 2119.18 1344.9 2111.26 1374.61C2103.99 1404.33 2100.36 1437.68 2100.36 1474.66C2100.36 1524.85 2106.3 1567.77 2118.19 1603.44C2130.74 1638.44 2150.22 1665.18 2176.63 1683.67C2203.05 1702.16 2236.73 1711.41 2277.67 1711.41C2306.73 1711.41 2335.45 1708.1 2363.85 1701.5C2392.91 1694.9 2424.27 1685.65 2457.95 1673.77V1799.57C2426.92 1812.11 2396.21 1821.36 2365.83 1827.3C2335.45 1833.25 2301.44 1836.22 2263.8 1836.22C2191.16 1836.22 2131.07 1821.36 2083.52 1791.64C2036.63 1761.27 2001.96 1719 1979.51 1664.85C1957.06 1610.04 1945.83 1546.31 1945.83 1473.67C1945.83 1420.18 1953.1 1371.31 1967.62 1327.07C1982.15 1282.16 2003.28 1243.53 2031.02 1211.17C2059.42 1178.81 2094.09 1153.72 2135.03 1135.89C2176.63 1118.06 2224.18 1109.14 2277.67 1109.14C2312.67 1109.14 2347.67 1113.77 2382.67 1123.01C2418.33 1131.6 2452.34 1143.48 2484.7 1158.67L2436.16 1280.51C2409.75 1267.96 2383 1257.07 2355.93 1247.82C2329.51 1238.58 2303.43 1233.95 2277.67 1233.95ZM3176.83 1826.31H3006.45L2821.21 1528.15L2757.82 1573.72V1826.31H2608.24V1119.05H2757.82V1442.96C2767.72 1429.1 2777.63 1415.23 2787.53 1401.36C2797.44 1387.49 2807.34 1373.62 2817.25 1359.76L3008.43 1119.05H3174.84L2928.19 1432.07L3176.83 1826.31Z" fill="black"/>
<path d="M1831.03 1471.69C1831.03 1526.5 1824.09 1576.36 1810.22 1621.27C1797.02 1665.51 1776.54 1703.81 1748.81 1736.17C1721.73 1768.53 1686.73 1793.29 1643.81 1810.46C1601.55 1827.63 1551.69 1836.22 1494.23 1836.22C1436.78 1836.22 1386.59 1827.63 1343.67 1810.46C1301.4 1792.63 1266.4 1767.87 1238.67 1736.17C1211.59 1703.81 1191.12 1665.18 1177.25 1620.27C1164.05 1575.37 1157.44 1525.51 1157.44 1470.7C1157.44 1397.4 1169.33 1333.67 1193.1 1279.52C1217.54 1225.37 1254.52 1183.44 1304.05 1153.72C1354.23 1123.34 1417.96 1108.15 1495.22 1108.15C1571.83 1108.15 1634.89 1123.34 1684.42 1153.72C1733.95 1183.44 1770.6 1225.7 1794.38 1280.51C1818.81 1334.66 1831.03 1398.39 1831.03 1471.69ZM1314.94 1471.69C1314.94 1521.22 1321.21 1563.81 1333.76 1599.47C1346.31 1635.13 1365.79 1662.54 1392.21 1681.69C1418.62 1700.84 1452.63 1710.42 1494.23 1710.42C1537.16 1710.42 1571.5 1700.84 1597.25 1681.69C1623.67 1662.54 1642.82 1635.13 1654.71 1599.47C1667.25 1563.81 1673.53 1521.22 1673.53 1471.69C1673.53 1397.07 1659.66 1338.62 1631.92 1296.36C1604.19 1254.1 1558.62 1232.96 1495.22 1232.96C1452.96 1232.96 1418.62 1242.54 1392.21 1261.69C1365.79 1280.84 1346.31 1308.25 1333.76 1343.91C1321.21 1379.57 1314.94 1422.16 1314.94 1471.69Z" fill="#0068D2"/>
<ellipse cx="1504.15" cy="1461.09" rx="203.517" ry="286.773" fill="#0068D2"/>
</svg>
